STARTFONT 2.1
FONT HAN-GB2312
SIZE 10 72 72
FONTBOUNDINGBOX 5 10 0 0
STARTPROPERTIES 1
BITCOUNT 8
ENDPROPERTIES
CHARS 26
STARTCHAR  00A4
ENCODING  164
SWIDTH  1000 0
DWIDTH  6 0
BBX  6 6 0 1
BITMAP
000010001000
10C0F0E0E010
00F0E030E000
00F0C010E000
10C0FFFFF020
000030102000
ENDCHAR
STARTCHAR  00A7
ENCODING  167
SWIDTH  1000 0
DWIDTH  5 0
BBX  3 8 1 0
BITMAP
A0FFA0
FF80E0
A0FF40
E0C0F0
E0C0E0
30E0A0
F080F0
A0F080
ENDCHAR
STARTCHAR  00A8
ENCODING  168
SWIDTH  1000 0
DWIDTH  4 0
BBX  3 2 1 6
BITMAP
FFA0FF
101010
ENDCHAR
STARTCHAR  00B0
ENCODING  176
SWIDTH  1000 0
DWIDTH  2 0
BBX  2 3 0 5
BITMAP
E060
F060
0000
ENDCHAR
STARTCHAR  00B1
ENCODING  177
SWIDTH  1000 0
DWIDTH  5 0
BBX  5 6 0 0
BITMAP
0000E00000
0000E00000
C0F0FFF0C0
2020E02020
1010E01010
F0FFFFFFE0
ENDCHAR
STARTCHAR  00D7
ENCODING  215
SWIDTH  1000 0
DWIDTH  7 0
BBX  8 7 -1 0
BITMAP
0020600000406000
00C0FFA040F0F010
0010C0FFFFF03000
000040FFFFE01000
0040F0F080FFE010
0080F0400060E030
0000100000001000
ENDCHAR
STARTCHAR  00E0
ENCODING  224
SWIDTH  1000 0
DWIDTH  5 0
BBX  5 9 0 0
BITMAP
0020E04000
0000106000
00A0FFE030
30E060FFA0
0040C0FFA0
40FFA0FFA0
80FF30FFA0
80FF60FFA0
20E0E0FFA0
ENDCHAR
STARTCHAR  00E1
ENCODING  225
SWIDTH  1000 0
DWIDTH  5 0
BBX  5 9 0 0
BITMAP
000080C000
0010800000
00A0FFE030
30E060FFA0
0040C0FFA0
40FFA0FFA0
80FF30FFA0
80FF60FFA0
20E0E0FFA0
ENDCHAR
STARTCHAR  00E8
ENCODING  232
SWIDTH  1000 0
DWIDTH  5 0
BBX  4 10 0 0
BITMAP
00603000
0040E000
00006030
40E0E060
F0A0C0F0
FFFFFFFF
FFA04060
FFA0A0FF
F0C0C0E0
40E0E040
ENDCHAR
STARTCHAR  00E9
ENCODING  233
SWIDTH  1000 0
DWIDTH  5 0
BBX  4 10 0 0
BITMAP
00006040
0040E010
00603000
40E0F060
F0C0C0F0
FFFFFFFF
FFC06060
FFA0A0FF
F0C0C0E0
40E0E040
ENDCHAR
STARTCHAR  00EA
ENCODING  234
SWIDTH  1000 0
DWIDTH  5 0
BBX  4 10 0 0
BITMAP
00404000
20E0E010
40404030
40E0E060
F0A0C0F0
FFFFFFFF
FFA04060
FFA0A0FF
F0C0C0E0
40E0E040
ENDCHAR
STARTCHAR  00EC
ENCODING  236
SWIDTH  1000 0
DWIDTH  3 0
BBX  4 9 0 0
BITMAP
20E04000
00206000
00FFA000
00FFA000
00FFA000
00FFA000
00FFA000
00FFA000
00FFA000
ENDCHAR
STARTCHAR  00ED
ENCODING  237
SWIDTH  1000 0
DWIDTH  3 0
BBX  4 9 0 0
BITMAP
00A0A000
20600000
00FFA000
00FFA000
00FFA000
00FFA000
00FFA000
00FFA000
00FFA000
ENDCHAR
STARTCHAR  00F2
ENCODING  242
SWIDTH  1000 0
DWIDTH  5 0
BBX  4 10 0 0
BITMAP
00603000
0040E000
00006030
40E0E040
F0A0C0F0
FFA0A0FF
FFA0A0FF
FFA0A0FF
F0A0A0F0
40E0F040
ENDCHAR
STARTCHAR  00F3
ENCODING  243
SWIDTH  1000 0
DWIDTH  5 0
BBX  4 10 0 0
BITMAP
00006040
0040E010
00603000
40E0E040
F0A0C0F0
FFA0A0FF
FFA0A0FF
FFA0A0FF
F0A0C0F0
40E0F040
ENDCHAR
STARTCHAR  00F7
ENCODING  247
SWIDTH  1000 0
DWIDTH  5 0
BBX  5 5 0 1
BITMAP
0000E00000
A0F0FFF0A0
1020202010
0000E00000
0000200000
ENDCHAR
STARTCHAR  00F9
ENCODING  249
SWIDTH  1000 0
DWIDTH  5 0
BBX  4 9 0 0
BITMAP
00A0A000
00006020
FFA0A0FF
FFA0A0FF
FFA0A0FF
FFA0A0FF
FFA0A0FF
F0A0A0FF
80FFE0FF
ENDCHAR
STARTCHAR  00FA
ENCODING  250
SWIDTH  1000 0
DWIDTH  5 0
BBX  4 9 0 0
BITMAP
0040E020
00602000
FFA0A0FF
FFA0A0FF
FFA0A0FF
FFA0A0FF
FFA0A0FF
F0A0A0FF
80FFE0FF
ENDCHAR
STARTCHAR  00FC
ENCODING  252
SWIDTH  1000 0
DWIDTH  5 0
BBX  4 8 0 0
BITMAP
A0FFA0FF
FFFFA0FF
FFFFA0FF
FFFFA0FF
FFFFA0FF
FFFFA0FF
F0FFA0FF
80FFE0FF
ENDCHAR
STARTCHAR  2014
ENCODING  8212
SWIDTH  1000 0
DWIDTH  5 0
BBX  5 2 0 2
BITMAP
F0F0F0F0F0
2020202020
ENDCHAR
STARTCHAR  2018
ENCODING  8216
SWIDTH  1000 0
DWIDTH  2 0
BBX  2 3 0 6
BITMAP
6020
FF80
FFA0
ENDCHAR
STARTCHAR  2019
ENCODING  8217
SWIDTH  1000 0
DWIDTH  2 0
BBX  2 3 0 5
BITMAP
FFA0
E0A0
6020
ENDCHAR
STARTCHAR  201C
ENCODING  8220
SWIDTH  1000 0
DWIDTH  4 0
BBX  4 3 0 6
BITMAP
60206020
FF80FF80
FFA0FFA0
ENDCHAR
STARTCHAR  201D
ENCODING  8221
SWIDTH  1000 0
DWIDTH  4 0
BBX  4 3 0 5
BITMAP
FFA0FFA0
E0A0E0A0
60206020
ENDCHAR
STARTCHAR  2026
ENCODING  8230
SWIDTH  1000 0
DWIDTH  7 0
BBX  7 2 0 0
BITMAP
E08080E030E060
FFA0A0FF30FF60
ENDCHAR
STARTCHAR  2030
ENCODING  8240
SWIDTH  1000 0
DWIDTH  9 0
BBX  8 8 0 0
BITMAP
A0E06080F0100000
FFFFA0E080000000
FFFFE0FF10000000
C0FFFFA000000000
0040FFE0E080A0A0
0080FFFFA0FFFFFF
10F0A0FFA0FFFFFF
60E020E0FFA0C0C0
ENDCHAR
ENDFONT
